<?xml version="1.0" encoding="utf-8"?>
<!-- Generator: Adobe Illustrator 21.0.2, SVG Export Plug-In . SVG Version: 6.00 Build 0)  -->
<svg version="1.1" id="Слой_1" xmlns="http://www.w3.org/2000/svg" xmlns:xlink="http://www.w3.org/1999/xlink" x="0px" y="0px"
	 viewBox="0 0 63 14" style="enable-background:new 0 0 63 14;" xml:space="preserve">
<style type="text/css">
	.st0{fill:#A26772;}
	.st1{fill:#FFFFFF;}
</style>
<g>
	<path class="st0" d="M56,14.1H6.9c-3.9,0-7-3.2-7-7V7c0-3.9,3.2-7,7-7h49.2c3.9,0,7,3.2,7,7v0.1C63,11,59.9,14.1,56,14.1z"/>
	<g>
		<path class="st1" d="M10.8,3.1v4.8c0,1.8,0.8,2.6,1.9,2.6c1.2,0,2-0.8,2-2.6V3.1h1.1v4.7c0,2.5-1.3,3.5-3.1,3.5
			c-1.7,0-2.9-0.9-2.9-3.5V3.1H10.8z"/>
		<path class="st1" d="M17.5,6.9c0-0.6,0-1.1,0-1.6h0.9l0.1,1h0c0.3-0.6,1-1.1,1.9-1.1c0.8,0,2.1,0.5,2.1,2.5v3.5h-1.1V7.8
			c0-0.9-0.3-1.7-1.3-1.7c-0.7,0-1.2,0.5-1.4,1.1c0,0.1-0.1,0.3-0.1,0.5v3.5h-1.1V6.9z"/>
		<path class="st1" d="M24.2,11.2v-5h-0.8V5.4h0.8V5.1c0-0.8,0.2-1.6,0.7-2c0.4-0.4,0.9-0.5,1.4-0.5c0.4,0,0.7,0.1,0.9,0.2l-0.1,0.8
			c-0.2-0.1-0.4-0.1-0.7-0.1c-0.9,0-1.1,0.8-1.1,1.7v0.3h1.4v0.8h-1.4v5H24.2z"/>
		<path class="st1" d="M32.7,8.2c0,2.1-1.5,3.1-2.9,3.1c-1.6,0-2.8-1.2-2.8-3c0-1.9,1.3-3.1,2.9-3.1C31.6,5.2,32.7,6.4,32.7,8.2z
			 M28.1,8.3c0,1.3,0.7,2.2,1.8,2.2c1,0,1.8-0.9,1.8-2.3c0-1-0.5-2.2-1.7-2.2S28.1,7.2,28.1,8.3z"/>
		<path class="st1" d="M34.1,2.6h1.1v8.5h-1.1V2.6z"/>
		<path class="st1" d="M36.9,2.6h1.1v8.5h-1.1V2.6z"/>
		<path class="st1" d="M45,8.2c0,2.1-1.5,3.1-2.9,3.1c-1.6,0-2.8-1.2-2.8-3c0-1.9,1.3-3.1,2.9-3.1C43.8,5.2,45,6.4,45,8.2z
			 M40.4,8.3c0,1.3,0.7,2.2,1.8,2.2c1,0,1.8-0.9,1.8-2.3c0-1-0.5-2.2-1.7-2.2C40.9,6,40.4,7.2,40.4,8.3z"/>
		<path class="st1" d="M46.6,5.4l0.8,3c0.2,0.6,0.3,1.2,0.4,1.8h0c0.1-0.6,0.3-1.2,0.5-1.8l0.9-3h0.9l0.9,2.9
			c0.2,0.7,0.4,1.3,0.5,1.9h0c0.1-0.6,0.3-1.2,0.4-1.9L53,5.4h1l-1.9,5.8h-1l-0.9-2.8c-0.2-0.6-0.4-1.2-0.5-1.9h0
			c-0.1,0.7-0.3,1.3-0.5,1.9l-0.9,2.8h-1l-1.8-5.8H46.6z"/>
	</g>
</g>
</svg>
